<?xml version="1.0" standalone="no"?>
<!DOCTYPE svg PUBLIC "-//W3C//DTD SVG 20010904//EN"
 "http://www.w3.org/TR/2001/REC-SVG-20010904/DTD/svg10.dtd">
<svg version="1.0" xmlns="http://www.w3.org/2000/svg"
 width="272.000000pt" height="270.000000pt" viewBox="0 0 272.000000 270.000000"
 preserveAspectRatio="xMidYMid meet">
<metadata>
Created by potrace 1.15, written by Peter Selinger 2001-2017
</metadata>
<g transform="translate(0.000000,270.000000) scale(0.100000,-0.100000)"
fill="#000000" stroke="none">
<path d="M840 2483 c0 -5 7 -39 15 -77 18 -86 50 -141 117 -201 30 -26 40 -39
23 -28 -76 45 -152 106 -254 202 -61 57 -111 98 -111 91 0 -18 73 -162 109
-214 40 -57 80 -88 195 -148 50 -26 88 -48 84 -48 -15 0 -168 60 -239 95 -41
20 -114 65 -162 101 -48 35 -87 62 -87 59 0 -2 11 -29 24 -59 47 -106 116
-189 186 -226 31 -15 250 -90 305 -103 l20 -5 -20 -1 c-11 0 -76 8 -145 18
-69 10 -127 17 -129 15 -2 -2 4 -15 13 -28 16 -25 58 -52 106 -67 24 -8 -104
-4 -257 7 -50 3 -73 1 -73 -6 0 -6 35 -28 78 -48 l77 -37 180 -5 180 -5 -185
-18 c-102 -11 -229 -21 -282 -24 -54 -3 -98 -9 -98 -14 0 -7 59 -31 144 -59
38 -12 128 -10 171 5 19 6 19 6 2 -8 -10 -8 -15 -17 -10 -20 4 -2 55 -1 113 4
190 14 188 12 -52 -67 -126 -41 -228 -78 -228 -83 0 -28 255 -30 385 -2 50 10
99 22 110 26 11 3 4 -3 -16 -14 -67 -37 -189 -81 -297 -106 -128 -30 -223 -60
-277 -88 l-40 -21 50 -8 c50 -8 221 5 305 23 98 20 98 20 60 0 -19 -11 -61
-30 -93 -42 -34 -13 -54 -25 -47 -29 22 -14 158 7 378 57 62 14 115 23 118 20
3 -3 -24 -22 -60 -42 -115 -64 -305 -119 -458 -132 -38 -3 -68 -9 -68 -14 0
-12 102 -39 193 -50 186 -23 376 22 495 118 47 38 52 36 22 -12 -35 -56 -131
-110 -244 -137 -52 -12 -76 -28 -41 -28 32 0 13 -16 -32 -28 -110 -29 -153
-44 -153 -51 0 -16 53 -31 111 -31 63 0 146 24 233 66 50 24 50 24 21 2 -100
-76 -201 -161 -209 -175 -7 -14 -4 -15 28 -10 20 3 36 4 36 3 0 -2 -48 -40
-107 -84 -93 -69 -166 -132 -152 -132 2 0 48 13 102 29 53 16 97 28 97 26 0
-1 -89 -66 -197 -144 -244 -175 -249 -178 -242 -185 3 -3 67 16 141 42 94 34
134 44 131 34 -5 -11 -1 -13 18 -7 35 11 179 84 213 108 l28 20 -12 -22 c-18
-35 -4 -37 40 -6 64 45 163 156 219 246 28 46 51 79 51 74 0 -6 -11 -45 -24
-88 -21 -69 -22 -77 -7 -77 9 0 27 8 41 17 18 13 22 13 18 2 -3 -8 -18 -45
-33 -82 -15 -37 -26 -69 -24 -71 2 -1 49 -31 104 -65 55 -35 102 -65 104 -67
8 -8 -27 -37 -71 -59 -30 -15 -44 -29 -47 -46 -3 -24 -3 -24 18 -5 12 11 21
14 21 8 0 -22 26 -12 60 23 39 40 64 35 75 -15 7 -31 19 -38 31 -18 5 8 11 6
20 -6 14 -19 34 -14 34 9 0 7 -15 28 -32 46 l-33 32 30 -7 c17 -4 37 -16 46
-26 15 -17 18 -18 29 -5 14 17 50 20 50 5 0 -5 5 -10 10 -10 6 0 10 6 10 14 0
16 -64 41 -150 57 -60 11 -70 17 -132 77 -55 53 -68 71 -68 96 0 17 4 26 8 19
4 -7 29 22 66 75 46 69 57 80 51 55 -3 -18 -3 -33 2 -33 15 0 60 52 87 100 24
42 26 43 26 18 0 -16 4 -28 8 -28 17 0 103 99 149 172 41 64 51 74 59 60 10
-14 13 -14 40 5 57 41 170 92 249 112 83 22 204 28 235 11 15 -8 20 -6 25 9
14 45 -19 68 -165 116 -52 17 -100 41 -123 60 -43 37 -158 79 -168 63 -5 -7
-27 -9 -63 -4 -58 6 -73 -3 -34 -21 18 -8 -6 -12 -102 -19 -156 -11 -269 -9
-283 5 -8 8 3 11 39 12 27 0 83 8 124 18 l75 16 -3 86 c-4 99 9 137 58 166 16
9 30 21 30 25 0 13 -58 9 -94 -6 l-33 -14 -7 51 c-7 63 -51 156 -109 229 -57
74 -176 202 -182 196 -3 -2 6 -37 20 -77 l24 -72 -38 30 c-85 68 -240 253
-309 370 -26 45 -27 45 -30 18 -6 -48 18 -133 54 -193 35 -58 35 -58 7 -33
-15 14 -92 80 -170 147 -78 67 -163 147 -189 177 -44 51 -64 66 -64 48z"/>
<path d="M510 735 c-30 -6 -109 -24 -175 -39 -171 -39 -195 -46 -195 -56 0
-14 177 -13 237 1 63 14 215 81 221 97 5 15 -15 14 -88 -3z"/>
<path d="M815 692 c-44 -27 -134 -77 -200 -112 -66 -35 -122 -65 -124 -66 -30
-26 195 27 249 58 70 40 132 94 151 131 11 20 16 37 12 37 -5 0 -44 -22 -88
-48z"/>
<path d="M1449 573 c-10 -3 -27 -32 -43 -78 -31 -87 -31 -84 -8 -83 18 1 170
-59 187 -73 5 -5 -6 -9 -26 -9 -51 0 -89 -38 -69 -70 6 -9 10 -7 15 9 3 12 10
19 14 17 9 -6 111 31 124 44 11 10 -165 110 -193 110 -25 0 -25 6 1 75 23 61
22 63 -2 58z"/>
</g>
</svg>
